HIERARCHY
ROOT stdjntHead
{
  OFFSET -3.18841 160.33 5.91051
  CHANNELS 6 Xposition Yposition Zposition Zrotation Xrotation Yrotation
  JOINT stdjntChest
  {
    OFFSET 14.8138 -0.224452 1.69667
    CHANNELS 6 Xposition Yposition Zposition Zrotation Xrotation Yrotation
    JOINT stdjntShoulderRotLf
    {
      OFFSET -8.10694 0.0512668 1.8714
      CHANNELS 6 Xposition Yposition Zposition Zrotation Xrotation Yrotation
      JOINT stdjntArmLoTpLf
      {
        OFFSET 12.4653 -24.2621 0
        CHANNELS 6 Xposition Yposition Zposition Zrotation Xrotation Yrotation
        JOINT stdjntHandLf
        {
          OFFSET 21.8574 6.07838 -15.144
          CHANNELS 6 Xposition Yposition Zposition Zrotation Xrotation Yrotation
          End Site
          {
            OFFSET 0 0 0
          }
        }
      }
    }
    JOINT stdjntShoulderRotRt
    {
      OFFSET 8.08415 0.609581 1.87
      CHANNELS 6 Xposition Yposition Zposition Zrotation Xrotation Yrotation
      JOINT stdjntArmLoTpRt
      {
        OFFSET -15.4358 -22.4893 0
        CHANNELS 6 Xposition Yposition Zposition Zrotation Xrotation Yrotation
        JOINT stdjntHandCRt
        {
          OFFSET -20.7232 -18.7938 -0.559406
          CHANNELS 6 Xposition Yposition Zposition Zrotation Xrotation Yrotation
          End Site
          {
            OFFSET 0 0 0
          }
        }
      }
    }
    JOINT stdjntHips
    {
      OFFSET 1.16862 -33.8899 0.9187
      CHANNELS 6 Xposition Yposition Zposition Zrotation Xrotation Yrotation
      JOINT stdjntLegUpLf
      {
        OFFSET 6.33268 -11.3985 0.95272
        CHANNELS 6 Xposition Yposition Zposition Zrotation Xrotation Yrotation
        JOINT stdjntLegLoLf
        {
          OFFSET 43.4207 -0.987229 -1.00689
          CHANNELS 6 Xposition Yposition Zposition Zrotation Xrotation Yrotation
          JOINT stdjntLegEndLf
          {
            OFFSET 41.5391 -2.73173 0.965117
            CHANNELS 6 Xposition Yposition Zposition Zrotation Xrotation Yrotation
            End Site
            {
              OFFSET 0 0 0
            }
          }
        }
      }
      JOINT stdjntLegUpRt
      {
        OFFSET 12.5357 -4.70861 0.95272
        CHANNELS 6 Xposition Yposition Zposition Zrotation Xrotation Yrotation
        JOINT stdjntLegLoRt
        {
          OFFSET 41.606 -12.3997 2.69368
          CHANNELS 6 Xposition Yposition Zposition Zrotation Xrotation Yrotation
          JOINT stdjntLegEndRt
          {
            OFFSET 41.3152 -3.04284 -4.6658
            CHANNELS 6 Xposition Yposition Zposition Zrotation Xrotation Yrotation
            End Site
            {
              OFFSET 0 0 0
            }
          }
        }
      }
    }
  }
}
MOTION
Frames:	7
Frame Time:	0.0416667
-3.18841 160.33 5.91051 89.132 7.01671e-015 180 14.8138 -0.224452 1.69667 87.157 0 6.17947e-031 -8.10694 0.0512668 1.8714 -56.4176 1.41245e-030 2.8249e-030 12.4653 -24.2621 -5.99643e-008 -14.9867 3.53113e-031 -0 21.8574 6.07838 -15.144 73.3792 7.01671e-015 180 8.08415 0.609581 1.87 63.3645 7.01671e-015 180 -15.4358 -22.4893 -1.41453e-006 -10.8266 7.06225e-031 -2.20695e-031 -20.7232 -18.7938 -0.559406 74.191 -7.01671e-015 180 1.16862 -33.8899 0.9187 -47.5391 2.11868e-030 1.41245e-030 6.33268 -11.3985 0.95272 137.311 7.01671e-015 180 43.4207 -0.987229 -1.00689 174.935 7.01671e-015 -180 41.5391 -2.73173 0.965117 85.1627 -7.76416e-024 -2.68562e-006 12.5357 -4.70861 0.95272 127.343 7.01671e-015 -180 41.606 -12.3997 2.69368 -9.53902 0 7.06225e-031 41.3152 -3.04284 -4.6658 136.882 -7.01671e-015 -180 
-3.18841 160.33 5.91051 89.132 7.01671e-015 180 14.8138 -0.224452 1.69667 87.157 0 6.17947e-031 -8.10694 0.0512668 1.8714 -56.4176 1.41245e-030 2.8249e-030 12.4653 -24.2621 -5.99643e-008 -14.9867 3.53113e-031 -0 21.8574 6.07838 -15.144 73.3792 7.01671e-015 180 8.08415 0.609581 1.87 63.3645 7.01671e-015 180 -15.4358 -22.4893 -1.41453e-006 -10.8266 7.06225e-031 -2.20695e-031 -20.7232 -18.7938 -0.559406 74.191 -7.01671e-015 180 1.16862 -33.8899 0.9187 -47.5391 2.11868e-030 1.41245e-030 6.33268 -11.3985 0.95272 137.311 7.01671e-015 180 43.4207 -0.987229 -1.00689 174.935 7.01671e-015 -180 41.5391 -2.73173 0.965117 85.1627 -7.76416e-024 -2.68562e-006 12.5357 -4.70861 0.95272 127.343 7.01671e-015 -180 41.606 -12.3997 2.69368 -9.53902 0 7.06225e-031 41.3152 -3.04284 -4.6658 136.882 -7.01671e-015 -180 
-3.2002 160.33 5.91051 89.132 7.01671e-015 180 14.8137 -0.229072 1.69667 87.157 0 6.17947e-031 -8.10693 0.0536198 1.8714 -56.4176 1.41245e-030 2.8249e-030 12.4489 -24.2705 -0.00594043 -14.9867 3.53113e-031 -0 21.8025 6.02919 -15.2426 73.3792 7.01671e-015 180 8.08433 0.607234 1.87 63.3645 7.01671e-015 180 -15.3979 -22.5153 0.0243476 -10.8266 7.06225e-031 -2.20695e-031 -20.9997 -18.4544 -0.517014 74.191 -7.01671e-015 180 1.16146 -33.8902 0.9187 -47.5391 2.11868e-030 1.41245e-030 6.33268 -11.3985 0.95272 137.311 7.01671e-015 180 43.238 -0.192752 4.21693 174.935 7.01671e-015 -180 41.1366 -1.83835 6.18817 85.1627 -7.76416e-024 -2.68562e-006 12.5357 -4.70861 0.95272 127.343 7.01671e-015 -180 41.606 -12.3997 2.69368 -9.53902 0 7.06225e-031 41.3152 -3.04284 -4.6658 136.882 -7.01671e-015 -180 
-3.23401 160.33 5.91051 89.132 7.01671e-015 180 14.8135 -0.242328 1.69667 87.157 0 6.17947e-031 -8.10688 0.0603705 1.8714 -56.4176 1.41245e-030 2.8249e-030 12.4009 -24.2951 -0.0233372 -14.9867 3.53113e-031 -0 21.7432 5.91309 -15.3722 73.3792 7.01671e-015 180 8.08483 0.600502 1.87 63.3645 7.01671e-015 180 -15.2867 -22.5908 0.0956552 -10.8266 7.06225e-031 -2.20695e-031 -21.2017 -18.1941 -0.383265 74.191 -7.01671e-015 180 1.14092 -33.8909 0.9187 -47.5391 2.11868e-030 1.41245e-030 6.33268 -11.3985 0.95272 137.311 7.01671e-015 180 42.5343 0.462393 8.82969 174.935 7.01671e-015 -180 40.2043 -0.941586 10.7989 85.1627 -7.76416e-024 -2.68562e-006 12.5357 -4.70861 0.95272 127.343 7.01671e-015 -180 41.606 -12.3997 2.69368 -9.53902 0 7.06225e-031 41.3152 -3.04284 -4.6658 136.882 -7.01671e-015 -180 
-3.28752 160.33 5.91051 89.132 7.01671e-015 180 14.8132 -0.263309 1.69667 87.157 0 6.17947e-031 -8.10679 0.0710557 1.8714 -56.4176 1.41245e-030 2.8249e-030 12.3228 -24.3347 -0.0515539 -14.9867 3.53113e-031 -0 21.6787 5.73321 -15.5305 73.3792 7.01671e-015 180 8.08562 0.589845 1.87 63.3645 7.01671e-015 180 -15.1055 -22.7115 0.211311 -10.8266 7.06225e-031 -2.20695e-031 -21.3347 -18.0103 -0.163588 74.191 -7.01671e-015 180 1.1084 -33.8919 0.9187 -47.5391 2.11868e-030 1.41245e-030 6.33268 -11.3985 0.95272 137.311 7.01671e-015 180 41.5683 0.95955 12.5896 174.935 7.01671e-015 -180 39.0126 -0.117359 14.5564 85.1627 -7.76416e-024 -2.68562e-006 12.5357 -4.70861 0.95272 127.343 7.01671e-015 -180 41.606 -12.3997 2.69368 -9.53902 0 7.06225e-031 41.3152 -3.04284 -4.6658 136.882 -7.01671e-015 -180 
-3.35842 160.33 5.91051 89.132 7.01671e-015 180 14.8127 -0.291106 1.69667 87.157 0 6.17947e-031 -8.10666 0.0852124 1.8714 -56.4176 1.41245e-030 2.8249e-030 12.2165 -24.3882 -0.089954 -14.9867 3.53113e-031 -0 21.6079 5.49273 -15.715 73.3792 7.01671e-015 180 8.08664 0.575725 1.87 63.3645 7.01671e-015 180 -14.8574 -22.8726 0.368701 -10.8266 7.06225e-031 -2.20695e-031 -21.4031 -17.8987 0.136629 74.191 -7.01671e-015 180 1.06532 -33.8933 0.9187 -47.5391 2.11868e-030 1.41245e-030 6.33268 -11.3985 0.95272 137.311 7.01671e-015 180 40.5871 1.30503 15.4378 174.935 7.01671e-015 -180 37.8246 0.583693 17.4025 85.1627 -7.76416e-024 -2.68562e-006 12.5357 -4.70861 0.95272 127.343 7.01671e-015 -180 41.606 -12.3997 2.69368 -9.53902 0 7.06225e-031 41.3152 -3.04284 -4.6658 136.882 -7.01671e-015 -180 
-3.4444 160.329 5.91051 89.132 7.01671e-015 180 14.812 -0.32481 1.69667 87.157 0 6.17947e-031 -8.10646 0.102378 1.8714 -56.4176 1.41245e-030 2.8249e-030 12.0834 -24.4542 -0.137901 -14.9867 3.53113e-031 -0 21.5291 5.19489 -15.9231 73.3792 7.01671e-015 180 8.08784 0.5586 1.87 63.3645 7.01671e-015 180 -14.5449 -23.0686 0.565203 -10.8266 7.06225e-031 -2.20695e-031 -21.4098 -17.8536 0.512026 74.191 -7.01671e-015 180 1.01308 -33.8948 0.9187 -47.5391 2.11868e-030 1.41245e-030 6.33268 -11.3985 0.95272 137.311 7.01671e-015 180 39.83 1.49626 17.2823 174.935 7.01671e-015 -180 36.9092 1.10148 19.2454 85.1627 -7.76416e-024 -2.68562e-006 12.5357 -4.70861 0.95272 127.343 7.01671e-015 -180 41.606 -12.3997 2.69368 -9.53902 0 7.06225e-031 41.3152 -3.04284 -4.6658 136.882 -7.01671e-015 -180 
